<?xml version="1.0" encoding="UTF-8" standalone="no"?><!DOCTYPE svg PUBLIC "-//W3C//DTD SVG 1.1//EN" "http://www.w3.org/Graphics/SVG/1.1/DTD/svg11.dtd"><svg width="100%" height="100%" viewBox="0 0 717 717" version="1.1" xmlns="http://www.w3.org/2000/svg" xmlns:xlink="http://www.w3.org/1999/xlink" xml:space="preserve" xmlns:serif="http://www.serif.com/" style="fill-rule:evenodd;clip-rule:evenodd;stroke-linecap:round;stroke-linejoin:round;stroke-miterlimit:1.5;"><g><path d="M716.667,682.911l-0,-649.155c-0,-18.648 -15.037,-33.756 -33.591,-33.756l-331.966,0c-0.118,0 -0.212,0.142 -0.307,0.189c-194.416,4.036 -350.803,162.784 -350.803,358.144c0,195.36 156.387,354.108 350.78,358.145c0.094,0.047 0.212,0.189 0.306,0.189l331.99,-0c18.554,-0 33.591,-15.108 33.591,-33.756Z" style="fill:#ff9c32;fill-rule:nonzero;"/><path d="M631.063,637.724l-277.241,0c-0.074,0 -0.167,-0.11 -0.241,-0.146c-20.766,-0.429 -40.913,-3.349 -60.377,-7.805c-120.779,-27.651 -214.771,-127.153 -214.262,-271.44c-0.509,-144.286 93.483,-243.789 214.262,-271.439c19.464,-4.456 39.611,-7.376 60.377,-7.805c0.074,-0.037 0.167,-0.147 0.241,-0.147l277.241,0c4.105,0 6.661,1.554 6.661,5.886l-0.008,18.06l-0.262,255.445l0.262,255.446l0.008,18.059c0,4.333 -2.556,5.886 -6.661,5.886Z" style="fill:url(#_Linear1);"/><path d="M589.021,507.259c30.192,8.09 47.761,42.002 38.663,75.957c-9.098,33.954 -41.269,54.539 -71.462,46.449c-30.192,-8.091 -47.76,-42.002 -38.662,-75.957c9.098,-33.955 41.269,-54.539 71.461,-46.449Zm-3.096,11.556c-24.21,-6.487 -49.514,10.763 -56.809,37.989c-7.296,27.226 5.993,54.818 30.203,61.305c24.21,6.487 49.514,-10.764 56.809,-37.99c7.295,-27.226 -5.994,-54.817 -30.203,-61.304Zm-151.504,-11.556c30.192,8.09 47.761,42.002 38.663,75.957c-9.098,33.954 -41.268,54.539 -71.461,46.449c-30.193,-8.091 -47.761,-42.002 -38.663,-75.957c9.098,-33.955 41.269,-54.539 71.461,-46.449Zm-3.096,11.556c-24.209,-6.487 -49.514,10.763 -56.809,37.989c-7.295,27.226 5.994,54.818 30.203,61.305c24.21,6.487 49.514,-10.764 56.809,-37.99c7.295,-27.226 -5.994,-54.817 -30.203,-61.304Zm129.884,-19.308l-0.53,-0.275c-6.353,-3.031 -36.42,-15.125 -48.743,-19.769c-2.552,-0.961 -4.13,-3.526 -3.838,-6.237c0.653,-6.074 -2.594,-16.018 -7.891,-25.354c-5.315,-9.369 -12.791,-18.235 -21.566,-21.525c-20.293,-7.61 -44.658,-11.889 -60.422,-7.433c-4.262,1.205 -7.825,3.038 -10.148,5.912c-2.175,2.691 -3.107,6.273 -2.75,10.799c0.388,4.909 3.206,8.592 7.333,11.709c5.162,3.898 12.217,6.882 20.143,9.637c15.58,5.417 34.352,9.805 50.242,16.624c11.477,4.925 21.483,11.145 28.222,19.554c5.634,7.029 8.427,12.659 8.973,18.686c0.373,4.115 -0.295,8.478 -2.152,13.679c-3.839,10.745 -13.297,25.914 -28.037,53.417c-1.559,2.91 -5.188,4.006 -8.098,2.447c-2.91,-1.56 -4.006,-5.188 -2.446,-8.098c11.553,-21.558 19.835,-35.36 24.608,-45.41c2.994,-6.305 4.589,-10.776 4.21,-14.956c-0.364,-4.026 -2.629,-7.587 -6.393,-12.283c-5.602,-6.99 -14.065,-11.949 -23.605,-16.042c-15.636,-6.71 -34.122,-10.988 -49.452,-16.318c-9.246,-3.214 -17.404,-6.843 -23.425,-11.39c-7.056,-5.329 -11.387,-11.922 -12.049,-20.315c-0.641,-8.122 1.469,-14.432 5.372,-19.261c3.756,-4.645 9.308,-7.956 16.198,-9.904c17.69,-5 45.103,-0.796 67.877,7.744c11.119,4.169 21.036,14.952 27.771,26.824c5.513,9.718 8.83,20.089 9.407,27.775c14.095,5.437 39.926,15.883 45.809,18.69c1.038,0.495 1.709,0.901 2.005,1.111l1.502,1.497c1.903,2.698 1.258,6.433 -1.44,8.336c-2.052,1.448 -4.697,1.412 -6.687,0.129Zm-127.352,-9.766c-3.904,-1.22 -7.512,-2.383 -10.889,-3.478c-3.14,-1.019 -4.862,-4.396 -3.843,-7.536c1.019,-3.14 4.395,-4.863 7.536,-3.844c3.703,1.202 7.691,2.487 12.049,3.839c0.855,0.074 1.68,0.332 2.418,0.746c3.746,1.148 7.761,2.341 12.093,3.571c3.176,0.902 5.022,4.213 4.12,7.388c-0.657,2.315 -2.594,3.923 -4.825,4.276c2.89,2.621 6.134,4.818 9.224,6.046c6.854,2.727 19.286,5.067 34.715,4.701c3.301,-0.078 6.044,2.538 6.122,5.838c0.079,3.301 -2.537,6.044 -5.838,6.122c-17.533,0.416 -31.632,-2.446 -39.421,-5.544c-9.17,-3.647 -19.178,-13.533 -23.461,-22.125Zm95.636,27.631c-3.302,0 -5.982,-2.68 -5.982,-5.981c-0,-3.302 2.68,-5.982 5.982,-5.982l4.42,0.039c3.302,0 5.982,2.681 5.982,5.982c0,3.302 -2.68,5.982 -5.982,5.982l-4.42,-0.04Zm-43.12,-124.533c11.352,0.357 39.328,0.871 47.591,1.809c18.948,2.153 26.487,14.127 27.23,25.774c0.697,10.902 -5.045,21.62 -13.399,25.454c-5.979,2.743 -13.49,2.552 -21.418,-3.752c-4.884,-3.884 -6.575,-7.255 -7.677,-10.398c-0.882,-2.516 -0.743,-4.959 -4.513,-7.731c-13.155,-9.676 -15.852,-12.735 -30.583,-19.781c-2.552,-1.221 -3.9,-4.062 -3.231,-6.811c0.669,-2.749 3.172,-4.653 6,-4.564Zm22.918,12.584c3.293,2.406 6.915,5.206 11.985,8.934c4.875,3.586 6.52,6.814 7.624,9.981c0.887,2.546 0.859,5.19 4.923,8.422c2.886,2.295 5.52,3.197 7.863,2.632c2.296,-0.553 4.089,-2.372 5.383,-4.604c2.819,-4.861 3.31,-11.912 -0.379,-17.176c-2.578,-3.68 -7.179,-6.293 -14.077,-7.076c-4.215,-0.479 -13.659,-0.831 -23.322,-1.113Zm61.359,68.001c-0.585,-0.244 -3.022,-1.228 -5.41,-1.665c-7.149,-1.307 -26.8,-1.585 -30.715,-1.224c-3.288,0.303 -6.203,-2.12 -6.505,-5.408c-0.303,-3.287 2.12,-6.202 5.408,-6.505c4.329,-0.399 26.058,-0.076 33.963,1.369c8.452,1.545 12.438,4.58 14.156,8.335c1.571,3.433 1.343,8.448 -1.094,15.919c-1.024,3.138 -4.404,4.855 -7.543,3.831c-3.138,-1.024 -4.855,-4.404 -3.831,-7.542c0.73,-2.236 1.272,-4.104 1.505,-5.684c0.07,-0.467 0.07,-1.117 0.066,-1.426Z" style="fill:#fff;"/><g><path d="M175.713,457.357c-3.792,14.926 -3.133,14.334 -0.309,30.21l-19.583,0.801c-11.814,-9.463 -1.528,-29.922 -0.368,-32.229c11.218,2.572 10.81,6.266 20.26,1.218Z" style="fill:url(#_Linear2);stroke:#fff;stroke-width:8.82px;"/><path d="M234.994,579.001c-3.293,-2.697 -3.776,-7.561 -1.078,-10.854c2.697,-3.294 7.561,-3.777 10.854,-1.079c18.963,15.535 43.377,22.708 70.854,27.816c4.186,0.778 6.952,4.807 6.174,8.993c-0.778,4.185 -4.808,6.952 -8.993,6.174c-30.242,-5.622 -56.94,-13.951 -77.811,-31.05Z" style="fill:#fff;"/><path d="M180.633,238.722c-14.917,32.441 -3.141,59.755 -1.085,64.524l-57.932,26.89l12.614,-80.554l46.403,-10.86Z" style="fill:#fff;stroke:#fff;stroke-width:11.96px;"/><path d="M363.269,109.424c-15.339,34.865 -8.07,71.999 -6.863,78.167c0.458,2.33 -0.713,5.057 -3.645,4.779c-0,0 -50.581,-4.046 -61.921,-5.869c-2.627,-0.423 -6.147,-2.449 -6.117,-5.071c0.149,-13.282 4.718,-61.281 7.01,-74.622c0.485,-2.821 3.844,-5.285 6.746,-5.421c11.551,-0.541 62.564,2.175 62.564,2.175c3.536,0.097 3.063,3.97 2.226,5.862Zm-61.338,21.123c7.038,1.058 30.376,0.771 38.141,1.89c2.387,0.344 4.944,-1.047 5.791,-4.258c0.401,-1.521 -1.98,-4.662 -4.137,-5.033c-7.004,-1.207 -30.573,-2.698 -37.887,-2.208c-2.65,0.178 -5.552,1.51 -5.999,4.961c-0.209,1.619 2.083,4.346 4.091,4.648Zm-3.379,19.62c7.018,1.086 30.731,1.508 38.265,2.637c2.298,0.344 4.995,-0.679 5.689,-3.957c0.302,-1.428 -2.487,-4.38 -4.697,-4.743c-7.116,-1.169 -30.816,-2.634 -37.999,-2.271c-2.271,0.115 -3.976,0.579 -4.869,4.217c-0.334,1.365 1.801,3.837 3.611,4.117Zm0.175,19.913c7.183,1.191 30.888,2.29 38.276,3.128c2.132,0.241 4.6,-0.529 5.005,-3.821c0.18,-1.465 -3.047,-4.599 -5.456,-5.027c-7.291,-1.296 -31.198,-3.196 -38.306,-2.912c-2.13,0.085 -3.75,0.739 -4.338,4.617c-0.216,1.425 2.746,3.672 4.819,4.015Z" style="fill:#fff;"/><path d="M627.154,96.039l-0,99.263c-0,3.228 -2.657,5.844 -5.935,5.844l-77.21,-0c-3.278,-0 -5.935,-2.616 -5.935,-5.844l0,-99.263c0,-3.227 2.657,-5.844 5.935,-5.844l77.21,0c3.278,0 5.935,2.617 5.935,5.844Zm-69.075,28.891l49.071,0c3.275,0 5.934,-2.618 5.934,-5.843c0,-3.225 -2.659,-5.844 -5.934,-5.844l-49.071,0c-3.276,0 -5.935,2.619 -5.935,5.844c0,3.225 2.659,5.843 5.935,5.843Zm-0,26.584l49.071,0c3.275,0 5.934,-2.618 5.934,-5.843c0,-3.225 -2.659,-5.844 -5.934,-5.844l-49.071,0c-3.276,0 -5.935,2.619 -5.935,5.844c0,3.225 2.659,5.843 5.935,5.843Zm-0,26.584l49.071,-0c3.275,-0 5.934,-2.619 5.934,-5.844c0,-3.225 -2.659,-5.843 -5.934,-5.843l-49.071,-0c-3.276,-0 -5.935,2.618 -5.935,5.843c0,3.225 2.659,5.844 5.935,5.844Z" style="fill:#fff;"/></g></g><defs><linearGradient id="_Linear1" x1="0" y1="0" x2="1" y2="0" gradientUnits="userSpaceOnUse" gradientTransform="matrix(-468.181,0.890541,-0.890541,-468.181,391.834,341.732)"><stop offset="0" style="stop-color:#6f170d;stop-opacity:1"/><stop offset="1" style="stop-color:#ff9a32;stop-opacity:1"/></linearGradient><linearGradient id="_Linear2" x1="0" y1="0" x2="1" y2="0" gradientUnits="userSpaceOnUse" gradientTransform="matrix(0.805378,-0.861747,0.861747,0.805378,970.258,326.936)"><stop offset="0" style="stop-color:#fff;stop-opacity:1"/><stop offset="1" style="stop-color:#b3b3b3;stop-opacity:1"/></linearGradient></defs></svg>