<?xml version="1.0" encoding="UTF-8" standalone="no"?><!DOCTYPE svg PUBLIC "-//W3C//DTD SVG 1.1//EN" "http://www.w3.org/Graphics/SVG/1.1/DTD/svg11.dtd"><svg width="100%" height="100%" viewBox="0 0 359 359" version="1.1" xmlns="http://www.w3.org/2000/svg" xmlns:xlink="http://www.w3.org/1999/xlink" xml:space="preserve" xmlns:serif="http://www.serif.com/" style="fill-rule:evenodd;clip-rule:evenodd;stroke-linejoin:round;stroke-miterlimit:2;"><g id="Layer_1"><path d="M351.154,1.25l-171.987,0c-98.263,0 -177.917,79.658 -177.917,177.917l0,171.987c0,3.275 2.654,5.929 5.929,5.929l171.988,0c98.262,0 177.916,-79.658 177.916,-177.916l0,-171.988c0,-3.275 -2.654,-5.929 -5.929,-5.929Z" style="fill:url(#_Linear1);fill-rule:nonzero;"/></g><path d="M122.901,213.352l0,13.722l-24.996,0l-0,-29.344l19.762,7.915c3.151,1.25 5.234,4.296 5.234,7.707Zm-24.996,26.22l24.996,0l0,21.143c0,2.525 -1.146,4.921 -3.124,6.509l-21.872,17.497l-0,-45.149Zm-0.26,66.709l32.547,-26.038c5.936,-4.739 9.373,-11.925 9.373,-19.528l0,-47.363c0,-10.232 -6.223,-19.424 -15.701,-23.199l-27.105,-10.832c-2.447,-6.197 -8.462,-10.571 -15.518,-10.571l-29.162,-0c-4.609,-0 -8.332,3.723 -8.332,8.332l-0,8.671c-11.821,1.978 -20.83,12.263 -20.83,24.657c-0,12.394 9.009,22.679 20.83,24.658l-0,34.031c-11.821,1.979 -20.83,12.264 -20.83,24.658c-0,12.393 9.009,22.678 20.83,24.657l-0,8.671c-0,4.608 3.723,8.332 8.332,8.332l12.498,-0c16.976,-0 30.985,-12.707 33.068,-29.11l-0,-0.026Zm-45.566,-24.346c5.064,1.713 8.494,6.494 8.494,11.84c0,6.856 -5.642,12.498 -12.498,12.498c-1.477,-0 -2.943,-0.262 -4.328,-0.774c-5.065,-1.712 -8.495,-6.493 -8.495,-11.839c0,-6.856 5.642,-12.498 12.498,-12.498c1.478,-0 2.943,0.262 4.329,0.773Zm8.332,-71.525c-0,6.856 -5.642,12.498 -12.498,12.498c-6.856,0 -12.498,-5.642 -12.498,-12.498c-0,-6.856 5.642,-12.498 12.498,-12.498c6.856,0 12.498,5.642 12.498,12.498Z" style="fill:#fff;fill-rule:nonzero;"/><path d="M218.75,108.333c-0,3.464 2.786,6.25 6.25,6.25c3.464,0 6.25,-2.786 6.25,-6.25l-0,-6.692l16.667,-9.011l-0,38.906l-9.896,7.136c-1.641,1.172 -2.604,3.073 -2.604,5.078l-0,14.583c-0,3.464 2.786,6.25 6.25,6.25c3.463,0 6.25,-2.786 6.25,-6.25l-0,-11.38l7.994,-5.755l13.829,6.927c-0.651,2.604 -0.99,5.339 -0.99,8.125c-0,18.411 14.922,33.333 33.333,33.333c18.412,0 33.334,-14.922 33.334,-33.333c-0,-17.005 -12.735,-31.016 -29.167,-33.073l0,-12.76c0,-2.214 -1.172,-4.245 -3.073,-5.391l-37.37,-22.083l10.443,-5.651c6.12,7.5 15.417,12.291 25.833,12.291c18.412,0 33.334,-14.922 33.334,-33.333c-0,-18.411 -14.922,-33.333 -33.334,-33.333c-18.411,-0 -33.333,14.922 -33.333,33.333c0,3.516 0.547,6.901 1.563,10.078l-47.188,25.495c-2.708,1.458 -4.375,4.271 -4.375,7.344l-0,9.166Zm70.755,-38.177l15.547,-8.411c3.047,-1.641 4.167,-5.443 2.526,-8.464c-1.641,-3.021 -5.443,-4.166 -8.463,-2.526l-15.547,8.412c-0.157,-0.938 -0.235,-1.927 -0.235,-2.917c0,-10.365 8.386,-18.75 18.75,-18.75c10.365,0 18.75,8.385 18.75,18.75c0,10.365 -8.385,18.75 -18.75,18.75c-4.843,0 -9.244,-1.823 -12.578,-4.844Zm16.745,84.74l0,-16.927c8.359,1.901 14.583,9.375 14.583,18.281c0,10.365 -8.385,18.75 -18.75,18.75c-10.364,0 -18.75,-8.385 -18.75,-18.75c0,-0.443 0.026,-0.885 0.052,-1.328l12.631,6.302c4.713,2.344 10.26,-1.068 10.26,-6.328l-0.026,-0Zm-12.5,-8.776l-26.38,-13.203l26.354,-18.985l0.026,0.026l-0,32.162Zm-33.333,-23.568l-0,-28.281l21.562,12.76l-21.562,15.521Z" style="fill:#fff;fill-rule:nonzero;"/><defs><linearGradient id="_Linear1" x1="0" y1="0" x2="1" y2="0" gradientUnits="userSpaceOnUse" gradientTransform="matrix(165.236,-157.827,157.827,165.236,93.616,259.074)"><stop offset="0" style="stop-color:#a04a00;stop-opacity:1"/><stop offset="1" style="stop-color:#4d2300;stop-opacity:1"/></linearGradient></defs></svg>