<?xml version="1.0" encoding="UTF-8" standalone="no"?>
<!DOCTYPE svg PUBLIC "-//W3C//DTD SVG 1.1//EN" "http://www.w3.org/Graphics/SVG/1.1/DTD/svg11.dtd">
<svg width="100%" height="100%" viewBox="0 0 172 215" version="1.1" xmlns="http://www.w3.org/2000/svg" xmlns:xlink="http://www.w3.org/1999/xlink" xml:space="preserve" xmlns:serif="http://www.serif.com/" style="fill-rule:evenodd;clip-rule:evenodd;stroke-linejoin:round;stroke-miterlimit:2;">
    <g transform="matrix(5.27907,-1.17726,1.16102,5.20624,-19.8226,50.9307)">
        <g transform="matrix(6.454e-17,1.05402,-1.05402,6.454e-17,32.8643,-0.864295)">
            <path d="M29.75,0.82C30.54,0.82 31.18,1.457 31.18,2.243L31.18,16.307C31.18,16.311 31.174,16.316 31.172,16.32C31.001,24.555 24.276,31.18 16,31.18C7.724,31.18 0.999,24.555 0.828,16.319C0.826,16.315 0.82,16.311 0.82,16.306L0.82,2.243C0.82,1.457 1.46,0.82 2.25,0.82L29.75,0.82ZM27.836,4.446C27.836,4.273 27.77,4.164 27.586,4.164L26.821,4.165L16,4.176L5.179,4.165L4.414,4.164C4.23,4.164 4.164,4.273 4.164,4.446L4.164,16.191C4.164,16.194 4.169,16.198 4.17,16.201C4.189,17.081 4.312,17.935 4.501,18.759C5.672,23.876 9.888,27.857 16,27.836C22.112,27.857 26.328,23.876 27.499,18.759C27.688,17.935 27.811,17.081 27.83,16.201C27.831,16.198 27.836,16.194 27.836,16.191L27.836,4.446Z" style="fill-opacity:0.4;"/>
        </g>
        <g transform="matrix(5.02207e-17,0.820165,-0.825232,5.05309e-17,29.2556,2.90238)">
            <path d="M31.18,1.306L31.18,16.307C31.18,16.311 31.174,16.316 31.172,16.32C31.149,17.444 30.99,18.534 30.747,19.587C29.242,26.122 23.825,31.208 15.969,31.18C8.114,31.208 2.697,26.122 1.192,19.587C0.949,18.534 0.79,17.444 0.767,16.32C0.765,16.316 0.759,16.311 0.759,16.307L0.759,1.306C0.759,1.084 0.844,0.946 1.079,0.946L2.063,0.946L15.969,0.96L29.876,0.946L30.86,0.946C31.095,0.946 31.18,1.084 31.18,1.306ZM2.418,15.796C2.315,15.751 2.105,15.725 2.099,15.916C2.099,15.916 1.951,18.676 1.981,19.301C1.988,19.458 2.122,19.64 2.276,19.666C3.002,19.79 5.616,20.038 6.339,20.046C6.481,20.047 6.592,19.857 6.615,19.715C6.714,19.101 6.934,16.364 6.934,16.364C6.949,16.206 6.801,16.142 6.674,16.167C6.338,16.232 4.317,16.626 2.418,15.796ZM5.721,19.288C5.702,19.4 5.58,19.56 5.502,19.549C5.291,19.517 5.255,19.429 5.251,19.314C5.235,18.929 5.339,17.636 5.409,17.241C5.433,17.111 5.603,16.936 5.683,16.946C5.862,16.968 5.904,17.102 5.891,17.217C5.845,17.617 5.785,18.899 5.721,19.288ZM4.637,19.297C4.621,19.395 4.487,19.511 4.412,19.493C4.214,19.445 4.189,19.352 4.183,19.229C4.163,18.841 4.243,17.558 4.306,17.173C4.326,17.054 4.487,16.903 4.565,16.919C4.743,16.957 4.799,17.103 4.78,17.227C4.719,17.635 4.696,18.918 4.637,19.297ZM3.568,19.115C3.552,19.223 3.404,19.347 3.315,19.336C3.128,19.312 3.055,19.155 3.045,19.011C3.019,18.616 3.1,17.34 3.165,16.961C3.186,16.845 3.357,16.716 3.439,16.738C3.614,16.783 3.69,16.922 3.671,17.051C3.61,17.471 3.626,18.734 3.568,19.115ZM27.983,22.736C28.914,21.607 29.367,20.163 29.673,18.526C29.716,18.3 29.565,18.082 29.337,18.04C29.109,17.998 28.89,18.147 28.848,18.374C28.57,19.86 28.179,21.181 27.333,22.207C27.186,22.386 27.213,22.649 27.392,22.795C27.571,22.941 27.836,22.915 27.983,22.736ZM21.36,25.944C21.635,26.455 21.434,26.433 21.294,27.04C21.42,27.103 22.534,27.66 23.049,27.02L23.005,25.961C22.141,26.114 22.173,26.149 21.36,25.944ZM9.458,25.678L10.049,28.189L14.434,28.871L12.97,25.736C12.711,25.848 11.224,26.485 9.458,25.678ZM17.848,9.135C17.843,9.288 17.947,9.423 18.096,9.46C18.246,9.496 18.401,9.423 18.467,9.285C18.851,8.488 19.017,8.342 19.544,7.63C19.695,7.426 19.828,7.434 19.965,7.386C20.136,7.326 20.32,7.235 20.531,6.971C20.874,6.542 20.885,6.135 20.735,5.812C20.527,5.36 19.943,5.049 19.35,5.087C18.716,5.127 18.064,5.535 17.947,6.56C17.895,7.007 17.867,8.521 17.848,9.135ZM18.533,7.895C18.548,7.372 18.568,6.861 18.594,6.633C18.636,6.26 18.779,6.011 18.979,5.871C19.266,5.672 19.649,5.698 19.914,5.851C20.036,5.921 20.135,6.018 20.165,6.142C20.195,6.269 20.146,6.411 20.021,6.568C19.845,6.788 19.701,6.786 19.563,6.834C19.39,6.894 19.215,6.983 19.02,7.246C18.817,7.521 18.664,7.717 18.533,7.895ZM1.69,1.518C1.514,1.518 1.372,1.661 1.372,1.839L1.372,6.016C1.372,6.194 1.514,6.338 1.69,6.338L7.094,6.338C7.27,6.338 7.412,6.194 7.412,6.016L7.412,1.839C7.412,1.661 7.27,1.518 7.094,1.518L1.69,1.518ZM3.263,5.255C3.263,5.432 3.12,5.576 2.945,5.576C2.769,5.576 2.626,5.432 2.626,5.255L2.626,2.6C2.626,2.423 2.769,2.279 2.945,2.279C3.12,2.279 3.263,2.423 3.263,2.6L3.263,5.255ZM4.71,5.255C4.71,5.432 4.567,5.576 4.392,5.576C4.216,5.576 4.074,5.432 4.074,5.255L4.074,2.6C4.074,2.423 4.216,2.279 4.392,2.279C4.567,2.279 4.71,2.423 4.71,2.6L4.71,5.255ZM6.157,5.255C6.157,5.432 6.015,5.576 5.839,5.576C5.663,5.576 5.521,5.432 5.521,5.255L5.521,2.6C5.521,2.423 5.663,2.279 5.839,2.279C6.015,2.279 6.157,2.423 6.157,2.6L6.157,5.255ZM23.655,5.086C23.725,4.978 23.727,4.835 23.648,4.724C23.545,4.578 23.341,4.543 23.194,4.646L23.113,4.727C23.101,4.743 23.079,4.78 23.052,4.836C22.9,5.154 22.331,6.552 22.035,7.314C21.616,7.346 21.052,7.525 20.523,7.823C19.876,8.188 19.289,8.724 19.062,9.326C18.597,10.558 18.369,12.042 18.641,12.999C18.747,13.371 18.927,13.672 19.18,13.875C19.443,14.086 19.786,14.2 20.229,14.166C20.686,14.13 21.044,13.896 21.335,13.514C21.582,13.188 21.78,12.747 21.955,12.246C22.245,11.417 22.478,10.417 22.843,9.571C23.066,9.054 23.336,8.597 23.716,8.293C23.972,8.09 24.166,7.967 24.385,7.948C24.613,7.927 24.856,8.013 25.199,8.175C25.746,8.434 26.498,8.882 27.672,9.507C27.83,9.591 28.027,9.532 28.112,9.374C28.197,9.217 28.138,9.021 27.979,8.936C26.482,8.139 25.656,7.627 25.071,7.419C24.788,7.319 24.55,7.283 24.326,7.303C23.998,7.332 23.692,7.484 23.309,7.788C22.851,8.153 22.513,8.694 22.244,9.315C21.873,10.175 21.634,11.191 21.34,12.034C21.189,12.463 21.027,12.844 20.815,13.124C20.645,13.347 20.445,13.5 20.177,13.52C19.931,13.54 19.736,13.489 19.589,13.372C19.433,13.246 19.333,13.053 19.268,12.823C19.025,11.97 19.258,10.651 19.672,9.553C19.851,9.079 20.334,8.674 20.844,8.386C21.352,8.1 21.894,7.924 22.224,7.96C22.372,7.975 22.512,7.89 22.564,7.752C22.817,7.085 23.475,5.458 23.64,5.115L23.655,5.086ZM24.628,6.802L24.63,6.563C24.63,6.384 24.484,6.239 24.304,6.239C24.125,6.239 23.979,6.384 23.979,6.563L23.977,6.802C23.977,6.981 24.122,7.126 24.302,7.126C24.482,7.126 24.628,6.981 24.628,6.802ZM23.124,11.976C23.591,11.745 24.129,11.203 24.328,10.707C24.497,10.286 24.653,9.523 24.63,8.574C24.626,8.396 24.476,8.254 24.297,8.258C24.117,8.262 23.975,8.411 23.979,8.589C23.999,9.424 23.871,10.097 23.723,10.468C23.656,10.635 23.536,10.811 23.394,10.967C23.374,10.846 23.287,10.741 23.161,10.706C22.988,10.657 22.808,10.757 22.759,10.929C22.692,11.163 22.627,11.38 22.564,11.583C22.542,11.623 22.528,11.668 22.524,11.714C22.45,11.95 22.38,12.165 22.315,12.366C22.259,12.536 22.353,12.718 22.524,12.774C22.695,12.829 22.879,12.736 22.934,12.566C22.994,12.383 23.057,12.188 23.124,11.976ZM24.077,3.581C23.637,5.215 24.757,6.955 26.606,7.448C28.455,7.94 30.301,6.989 30.741,5.356C31.182,3.722 30.061,1.981 28.212,1.489C26.364,0.997 24.518,1.947 24.077,3.581ZM24.706,3.749C25.06,2.439 26.562,1.72 28.044,2.114C29.526,2.509 30.465,3.878 30.112,5.188C29.759,6.498 28.257,7.217 26.775,6.822C25.292,6.428 24.353,5.058 24.706,3.749ZM24.077,11.946C23.637,13.58 24.757,15.32 26.606,15.813C28.455,16.305 30.301,15.354 30.741,13.721C31.182,12.087 30.061,10.346 28.212,9.854C26.364,9.362 24.518,10.312 24.077,11.946ZM24.706,12.113C25.06,10.804 26.562,10.085 28.044,10.479C29.526,10.874 30.465,12.243 30.112,13.553C29.759,14.863 28.257,15.582 26.775,15.187C25.292,14.793 24.353,13.423 24.706,12.113ZM22.235,4.575C22.252,4.575 22.287,4.575 22.313,4.579C22.399,4.591 22.501,4.62 22.622,4.66C22.793,4.715 22.977,4.622 23.033,4.453C23.089,4.283 22.995,4.1 22.824,4.045C22.418,3.913 22.145,3.9 21.958,3.985C21.753,4.078 21.588,4.294 21.504,4.751C21.425,5.179 21.408,6.355 21.429,6.589C21.446,6.767 21.605,6.898 21.784,6.882C21.962,6.865 22.094,6.708 22.078,6.53C22.058,6.318 22.073,5.255 22.145,4.868C22.168,4.738 22.222,4.607 22.235,4.575Z" style="fill-opacity:0.7;"/>
        </g>
    </g>
</svg>
