<?xml version="1.0" encoding="UTF-8" standalone="no"?><!DOCTYPE svg PUBLIC "-//W3C//DTD SVG 1.1//EN" "http://www.w3.org/Graphics/SVG/1.1/DTD/svg11.dtd"><svg width="100%" height="100%" viewBox="0 0 2500 3125" version="1.1" xmlns="http://www.w3.org/2000/svg" xmlns:xlink="http://www.w3.org/1999/xlink" xml:space="preserve" xmlns:serif="http://www.serif.com/" style="fill-rule:evenodd;clip-rule:evenodd;stroke-linejoin:round;stroke-miterlimit:2;"><path d="M2228.63,-164.118c22.521,-4.661 44.55,9.813 49.211,32.333l244.79,1182.67c139.851,675.673 -294.513,1336.82 -970.215,1476.67l-1182.67,244.79c-22.52,4.661 -44.549,-9.812 -49.211,-32.333l-244.789,-1182.67c-139.851,-675.673 294.512,-1336.82 970.214,-1476.67l1182.67,-244.79Zm-758.065,924.809c4.93,23.817 28.057,39.012 51.874,34.083c23.817,-4.93 39.012,-28.057 34.082,-51.874l-9.525,-46.022l101.783,-85.682l55.376,267.538l-57.893,63.152c-9.614,10.393 -13.534,24.837 -10.68,38.626l20.756,100.282c4.93,23.817 28.057,39.012 51.874,34.083c23.817,-4.93 39.012,-28.057 34.083,-51.874l-16.198,-78.256l46.785,-50.955l104.948,27.953c-0.77,18.834 0.794,38.119 4.76,57.28c26.205,126.606 150.053,207.978 276.66,181.773c126.606,-26.205 207.978,-150.053 181.773,-276.66c-24.204,-116.936 -131.713,-195.154 -247.637,-185.913l-18.162,-87.747c-3.151,-15.221 -14.1,-27.521 -28.804,-32.694l-288.404,-98.668l63.766,-53.722c52.758,42.863 123.508,62.581 195.138,47.755c126.606,-26.205 207.978,-150.054 181.773,-276.66c-26.205,-126.607 -150.054,-207.978 -276.66,-181.773c-126.606,26.205 -207.978,150.053 -181.773,276.659c5.004,24.176 13.583,46.677 25.089,67.079l-288.198,242.476c-16.549,13.883 -24.006,35.596 -19.633,56.727l13.047,63.034Zm432.211,-363.23l94.936,-79.969c18.616,-15.619 20.905,-43.358 5.324,-61.795c-15.581,-18.438 -43.357,-20.906 -61.795,-5.324l-94.936,79.969c-2.409,-6.225 -4.354,-12.918 -5.763,-19.723c-14.752,-71.272 30.975,-140.869 102.247,-155.621c71.272,-14.752 140.87,30.975 155.622,102.247c14.752,71.272 -30.976,140.869 -102.248,155.621c-33.308,6.894 -66.166,0.623 -93.387,-15.405Zm235.755,558.878l-24.092,-116.399c60.189,1.175 113.625,43.711 126.302,104.955c14.751,71.272 -30.976,140.869 -102.248,155.621c-71.272,14.752 -140.869,-30.976 -155.621,-102.248c-0.63,-3.044 -1.081,-6.125 -1.532,-9.206l95.821,25.359c35.749,9.408 69.036,-21.946 61.549,-58.119l-0.179,0.037Zm-401.46,-351.653l166.436,57.057l-126.184,137.419l-40.252,-194.476Zm303.013,309.096l-200.196,-53.244l154.204,-168.056l0.216,0.142l45.776,221.158Zm-1120.56,1380.46l186.75,-225.372c34.078,-41.036 47.483,-95.345 36.662,-147.627l-67.411,-325.687c-14.564,-70.365 -70.438,-124.712 -140.985,-137.184l-201.805,-35.905c-25.651,-39.13 -73.237,-60.649 -121.759,-50.606l-200.533,41.506c-31.691,6.56 -51.995,37.463 -45.436,69.154l12.341,59.623c-78.471,30.433 -125.783,113.979 -108.143,199.205c17.64,85.227 94.229,143.128 178.333,139.911l48.437,234.015c-78.471,30.432 -125.783,113.979 -108.143,199.205c17.64,85.227 94.229,143.128 178.333,139.911l12.341,59.623c6.559,31.691 37.463,51.995 69.154,45.436l85.943,-17.789c116.739,-24.162 194.981,-131.475 185.958,-247.24l-0.037,-0.179Zm-347.984,-102.556c37.262,4.569 67.654,32.562 75.263,69.324c9.758,47.147 -21.008,93.973 -68.154,103.731c-10.158,2.103 -20.608,2.388 -30.865,0.842c-37.262,-4.568 -67.654,-32.562 -75.263,-69.323c-9.759,-47.147 21.007,-93.973 68.154,-103.732c10.158,-2.102 20.608,-2.387 30.865,-0.842Zm-44.507,-503.702c9.759,47.147 -21.007,93.973 -68.154,103.731c-47.147,9.759 -93.973,-21.007 -103.731,-68.154c-9.759,-47.147 21.007,-93.973 68.154,-103.731c47.147,-9.759 93.973,21.007 103.731,68.154Zm299.335,147.168l171.886,-35.577l30.092,145.386c3.595,17.368 -0.874,35.471 -12.221,49.209l-125.496,151.45l-64.261,-310.468Zm134.567,-215.878l19.53,94.358l-171.885,35.577l-41.766,-201.786l147.163,26.302c23.443,4.11 42.103,22.094 46.958,45.549Z" style="fill:#fff;fill-opacity:0.5;"/><g><path d="M652.557,896.06l0.293,-0.016c-0,0 -0.185,0.206 -0.554,0.617c-10.977,6.848 -19.851,12.801 -26.621,17.858c-12.596,9.478 -25.253,19.643 -37.971,30.496c-14.585,12.518 -25.466,22.979 -32.643,31.384c-6.08,6.976 -9.037,12.025 -8.869,15.145c0.188,3.511 12.333,16.6 36.433,39.267c24.101,22.667 43.108,38.811 57.022,48.43c13.915,9.62 27.405,14.08 40.472,13.379l12.857,-0.983c4.681,-0.252 8.511,0.961 11.491,3.637c2.979,2.676 4.621,6.843 4.924,12.499c0.429,7.996 -4.047,17.527 -13.429,28.592c-9.381,11.065 -26.164,17.247 -50.348,18.544c-14.237,0.764 -28.95,-3.679 -44.137,-13.328c-15.187,-9.649 -38.879,-31.996 -71.076,-67.04c-25.764,-28.153 -39.719,-42.171 -41.864,-42.056c-1.366,0.073 -5.273,3.803 -11.722,11.191c-6.45,7.387 -10.648,12.991 -12.594,16.812l0.015,0.292c-2.447,16.366 -2.969,37.616 -1.567,63.75c0.701,13.067 -2.58,23.903 -9.845,32.508c-7.264,8.605 -16.455,13.205 -27.571,13.802c-11.507,0.617 -20.654,-2.168 -27.441,-8.357c-6.786,-6.188 -10.357,-12.598 -10.713,-19.229c-0.377,-7.021 1.234,-22.559 4.834,-46.615c6.881,-46.725 11.489,-108.486 13.823,-185.284c2.966,-61.38 5.871,-109.309 8.716,-143.788c2.844,-34.48 5.834,-57.133 8.969,-67.961c3.136,-10.828 8.434,-19.621 15.895,-26.378c7.461,-6.757 15.678,-10.376 24.649,-10.858c8.582,-0.46 15.647,2.73 21.198,9.572c5.55,6.841 8.597,15.333 9.141,25.474c0.68,12.677 -4.853,62.655 -16.6,149.933l-4.965,38.701l0.292,-0.016c-5.557,56.825 -8.198,89.63 -7.922,98.417l85.449,-86.147c43.457,-46.731 75.912,-70.672 97.366,-71.823c20.673,-1.109 31.455,6.625 32.344,23.203c1.109,20.673 -8.134,36.132 -27.731,46.376Z" style="fill:#fff;fill-rule:nonzero;"/><path d="M823.591,1114.56c-1.263,20.214 -11.939,30.859 -32.027,31.937c-25.549,1.371 -39.312,-16.374 -41.29,-53.235c-3.202,-59.68 -2.72,-110.854 1.445,-153.521c3.303,-33.232 4.101,-65.744 2.395,-97.534c-0.408,-7.606 1.688,-14.124 6.286,-19.554c4.599,-5.43 11.286,-8.381 20.062,-8.851c29.255,-1.57 44.835,15.393 46.739,50.889c0.618,11.507 -2.976,41.136 -10.78,88.889c-4.735,28.419 -6.762,48.968 -6.082,61.645c49.208,-125.473 96.241,-189.413 141.098,-191.82c18.138,-0.973 33.104,5.461 44.898,19.303c11.793,13.841 19.214,45.52 22.262,95.037c2.623,45.237 6.177,67.735 10.663,67.495c3.51,-0.189 14.522,-22.784 33.037,-67.786c20.603,-49.808 38.726,-82.955 54.369,-99.442c15.643,-16.487 32.534,-25.217 50.672,-26.19c21.648,-1.161 37.848,7.309 48.599,25.411c10.751,18.103 19.264,49.185 25.54,93.248c4.809,34.949 10.182,61.262 16.118,78.938c5.936,17.676 15.107,29.115 27.512,34.317c10.003,4.158 15.256,10.917 15.758,20.279c0.45,8.386 -4.656,17.12 -15.318,26.2c-10.661,9.08 -21.746,13.929 -33.252,14.547c-19.894,1.067 -35.973,-7.899 -48.239,-26.898c-12.266,-18.999 -21.935,-57.941 -29.006,-116.827c-3.673,-28.359 -6.977,-47.106 -9.912,-56.239c-2.935,-9.133 -6.84,-13.569 -11.716,-13.307c-4.291,0.23 -10.158,7.537 -17.601,21.921c-7.443,14.385 -20.094,42.887 -37.954,85.506c-15.739,38.398 -29.598,65.352 -41.577,80.859c-11.98,15.508 -25.283,23.654 -39.91,24.439c-11.312,0.607 -22.934,-3.659 -34.867,-12.799c-11.933,-9.139 -20.024,-44.205 -24.274,-105.198c-3.895,-54.361 -8.865,-81.38 -14.911,-81.056c-8.191,0.44 -26.592,25.681 -55.202,75.723c-28.61,50.042 -49.789,94.6 -63.535,133.674Z" style="fill:#fff;fill-rule:nonzero;"/></g><g><path d="M1386.12,1458.94c20.932,-2.611 32.823,7.519 35.676,30.389c1.305,10.465 1.259,21.936 -0.137,34.412c-1.397,12.476 -5.602,43.459 -12.617,92.95c-5.17,35.876 -7.67,74.618 -7.5,116.226c0.17,41.607 1.693,73.943 4.569,97.006c3.07,24.614 8.561,53.65 16.474,87.108c2.105,8.988 3.302,14.645 3.593,16.971c1.45,11.628 -1.569,22.141 -9.058,31.539c-7.488,9.397 -16.271,14.724 -26.349,15.981c-13.761,1.716 -24.261,-3.568 -31.501,-15.852c-7.24,-12.284 -12.83,-34.222 -16.77,-65.813c-8.484,-68.028 -10.484,-149.166 -6.001,-243.414c4.484,-94.248 10.774,-150.341 18.871,-168.278c8.096,-17.936 18.346,-27.678 30.75,-29.225Z" style="fill:#fff;fill-rule:nonzero;"/><path d="M1766.64,1761.64c-7.329,46.971 -27.224,88.276 -59.684,123.915c-32.46,35.639 -66.811,55.718 -103.054,60.238c-28.684,3.578 -53.64,-3.987 -74.869,-22.696c-21.228,-18.708 -33.752,-43.373 -37.571,-73.995c-6.236,-50.003 4.679,-101.358 32.747,-154.065c28.068,-52.707 66.425,-82.094 115.072,-88.161c33.142,-4.133 61.513,4.777 85.115,26.732c23.602,21.955 37.517,49.891 41.747,83.808c1.837,14.73 1.991,29.374 0.461,43.933l0.036,0.291Zm-162.63,-73.013c-12.068,13.709 -22.951,34.552 -32.649,62.529c-9.698,27.978 -12.892,55.243 -9.58,81.795c2.006,16.087 6.618,28.994 13.834,38.723c7.217,9.728 15.67,13.988 25.361,12.78c24.032,-2.998 47.257,-20.361 69.675,-52.09c22.417,-31.729 31.414,-65.328 26.991,-100.795c-2.49,-19.963 -8.754,-35.862 -18.792,-47.699c-10.038,-11.837 -22.616,-16.813 -37.733,-14.928c-14.342,1.789 -26.614,8.339 -36.816,19.649l-0.291,0.036Z" style="fill:#fff;fill-rule:nonzero;"/><path d="M2033.83,1787.66c-18.491,26.91 -41.058,49.948 -67.699,69.115c-26.642,19.167 -50.331,30.044 -71.069,32.63c-20.544,2.562 -37.234,-1.458 -50.071,-12.06c-12.836,-10.602 -20.572,-26.466 -23.207,-47.592c-3.746,-30.04 3.471,-64.893 21.651,-104.557c18.18,-39.664 45.777,-75.631 82.79,-107.902c37.014,-32.27 71.704,-50.423 104.07,-54.46c17.831,-2.224 33.843,0.7 48.037,8.771c3.391,1.939 6.346,3.539 8.865,4.799c5.063,2.715 10.13,8.234 15.203,16.556c5.073,8.323 7.948,15.198 8.625,20.625c0.435,3.488 -1.785,15.673 -6.66,36.554c-4.972,21.681 -7.746,42.447 -8.321,62.3c-0.575,19.853 -0.473,69.194 0.304,148.024c0.49,68.631 -12.243,120.41 -38.199,155.336c-25.955,34.926 -57.151,54.661 -93.587,59.205c-38.181,4.762 -76.849,-3.455 -116.003,-24.651c-39.155,-21.197 -59.772,-40.129 -61.85,-56.796c-1.837,-14.73 4.415,-22.989 18.757,-24.778c5.621,-0.701 17.756,3.494 36.407,12.583c47.815,23.561 87.518,33.371 119.109,29.431c24.033,-2.997 42.31,-20.58 54.831,-52.748c12.522,-32.168 18.527,-88.963 18.017,-170.385Zm-13.182,-162.508c-14.342,1.788 -32.072,12.709 -53.19,32.762c-21.118,20.053 -39.749,45.848 -55.892,77.385c-16.143,31.537 -23.018,56.899 -20.625,76.087c1.257,10.078 5.568,14.658 12.933,13.739c25.002,-3.118 48.546,-16.339 70.634,-39.662c22.089,-23.323 39.096,-49.112 51.023,-77.368c11.927,-28.256 17.044,-49.167 15.352,-62.734c-0.846,-6.783 -3.267,-11.992 -7.263,-15.627c-3.996,-3.635 -8.32,-5.163 -12.972,-4.582Z" style="fill:#fff;fill-rule:nonzero;"/></g></svg>